<svg xmlns="http://www.w3.org/2000/svg" viewBox="0 0 776.96 117.9"><defs><style>.cls-1{fill:#fff;}</style></defs><title>Asset 1</title><g id="Layer_2" data-name="Layer 2"><g id="Layer_1-2" data-name="Layer 1"><path class="cls-1" d="M2.77,53.73q.52-8.65,4.33-14.36a29.41,29.41,0,0,1,9.69-9.17A42.22,42.22,0,0,1,30,25.28,75.37,75.37,0,0,1,44.8,23.81a100.66,100.66,0,0,1,13.67,1,41.9,41.9,0,0,1,12.63,3.72,24.9,24.9,0,0,1,9.34,7.7q3.63,4.93,3.63,13.06V95.76a93.18,93.18,0,0,0,.69,11.59q.69,5.54,2.42,8.3H66.38a5.3,5.3,0,0,1-5.22-4.19v0a36.63,36.63,0,0,1-.61-4.41,32,32,0,0,1-13.84,8.48,55.59,55.59,0,0,1-16.26,2.42,43.94,43.94,0,0,1-11.94-1.56,27.31,27.31,0,0,1-9.69-4.84,22.54,22.54,0,0,1-6.49-8.3A28.06,28.06,0,0,1,0,91.27q0-7.61,2.68-12.54A22.4,22.4,0,0,1,9.6,70.85a31,31,0,0,1,9.69-4.41,103.88,103.88,0,0,1,11-2.33q5.54-.87,10.9-1.38a65.77,65.77,0,0,0,9.51-1.56,16.62,16.62,0,0,0,6.57-3,6.65,6.65,0,0,0,2.25-5.8A13,13,0,0,0,58.21,46a9.54,9.54,0,0,0-3.46-3.63,13.65,13.65,0,0,0-5-1.73,41.51,41.51,0,0,0-6.14-.43q-7.27,0-11.42,3.11T27.33,53.73ZM59.5,71.89a11,11,0,0,1-3.89,2.16,39.9,39.9,0,0,1-5,1.3q-2.69.52-5.62.86t-5.88.87a44.61,44.61,0,0,0-5.45,1.38A16.17,16.17,0,0,0,29,80.8a11.08,11.08,0,0,0-3.2,3.72,11.94,11.94,0,0,0-1.21,5.71,11.53,11.53,0,0,0,1.21,5.54,9.25,9.25,0,0,0,3.29,3.55,13.83,13.83,0,0,0,4.84,1.82,30.83,30.83,0,0,0,5.71.52q7.26,0,11.24-2.42a16.23,16.23,0,0,0,5.88-5.8,18.55,18.55,0,0,0,2.33-6.83,47.26,47.26,0,0,0,.43-5.54Z"/><path class="cls-1" d="M161.38,104.24a25.33,25.33,0,0,1-11.33,10.46,37.7,37.7,0,0,1-15.83,3.2A38.24,38.24,0,0,1,116.58,114,35.39,35.39,0,0,1,104,103.46,47.81,47.81,0,0,1,96.6,88.15a64.24,64.24,0,0,1-2.51-18A60.36,60.36,0,0,1,96.6,52.78,45.16,45.16,0,0,1,104,38a36.12,36.12,0,0,1,29.67-14.18,35.16,35.16,0,0,1,15.14,3.37,26.38,26.38,0,0,1,11.33,9.95h.35V0h24.56V115.65H161.73V104.24Zm-1-44.19a26,26,0,0,0-3.55-9,20,20,0,0,0-6.49-6.31,19,19,0,0,0-10-2.42,20,20,0,0,0-10.21,2.42,19.15,19.15,0,0,0-6.66,6.4,28.27,28.27,0,0,0-3.63,9.08,49.22,49.22,0,0,0-1.12,10.64,45.43,45.43,0,0,0,1.21,10.38,28.21,28.21,0,0,0,3.89,9.25,21.5,21.5,0,0,0,6.75,6.57,18.22,18.22,0,0,0,9.77,2.51,19.48,19.48,0,0,0,10.12-2.42,18.43,18.43,0,0,0,6.49-6.49,29.08,29.08,0,0,0,3.46-9.25,54.48,54.48,0,0,0,1-10.73A53.18,53.18,0,0,0,160.34,60Z"/><path class="cls-1" d="M241.12,42.31A17.25,17.25,0,0,0,231.26,45a21.31,21.31,0,0,0-6.49,6.92,30,30,0,0,0-3.55,9.34,50.71,50.71,0,0,0-1,10.12,48.6,48.6,0,0,0,1,9.86,30.48,30.48,0,0,0,3.37,9.08A19.35,19.35,0,0,0,230.92,97a17.34,17.34,0,0,0,9.69,2.59q8.82,0,13.58-4.93t6-13.23h23.7Q281.42,99.22,270,108.56t-29.23,9.34a49,49,0,0,1-18.42-3.37,40.8,40.8,0,0,1-14.27-9.43,42.88,42.88,0,0,1-9.17-14.44,50.06,50.06,0,0,1-3.29-18.42,59.55,59.55,0,0,1,3-19.29,43.38,43.38,0,0,1,8.91-15.4,40.77,40.77,0,0,1,14.36-10.12,48.79,48.79,0,0,1,19.37-3.63,56.12,56.12,0,0,1,15.31,2.08,40.9,40.9,0,0,1,13.15,6.31,32.65,32.65,0,0,1,13.58,25.51h-24Q256.86,42.32,241.12,42.31Z"/><path class="cls-1" d="M291.45,53.73q.52-8.65,4.33-14.36a29.41,29.41,0,0,1,9.69-9.17,42.22,42.22,0,0,1,13.23-4.93,75.37,75.37,0,0,1,14.79-1.47,100.66,100.66,0,0,1,13.67,1,41.9,41.9,0,0,1,12.63,3.72,24.9,24.9,0,0,1,9.34,7.7q3.63,4.93,3.63,13.06V95.76a93.18,93.18,0,0,0,.69,11.59q.69,5.54,2.42,8.3h-20.8a5.3,5.3,0,0,1-5.22-4.19v0a36.63,36.63,0,0,1-.61-4.41,32,32,0,0,1-13.84,8.48,55.59,55.59,0,0,1-16.26,2.42,43.94,43.94,0,0,1-11.94-1.56,27.31,27.31,0,0,1-9.69-4.84,22.54,22.54,0,0,1-6.49-8.3,28.06,28.06,0,0,1-2.33-11.93q0-7.61,2.68-12.54a22.4,22.4,0,0,1,6.92-7.87A31,31,0,0,1,308,66.44a103.88,103.88,0,0,1,11-2.33q5.54-.87,10.9-1.38a65.77,65.77,0,0,0,9.51-1.56,16.62,16.62,0,0,0,6.57-3,6.65,6.65,0,0,0,2.25-5.8,13,13,0,0,0-1.3-6.31,9.54,9.54,0,0,0-3.46-3.63,13.65,13.65,0,0,0-5-1.73,41.51,41.51,0,0,0-6.14-.43q-7.27,0-11.42,3.11T316,53.73Zm56.74,18.16a11,11,0,0,1-3.89,2.16,39.9,39.9,0,0,1-5,1.3q-2.69.52-5.62.86t-5.88.87a44.61,44.61,0,0,0-5.45,1.38,16.17,16.17,0,0,0-4.67,2.33,11.08,11.08,0,0,0-3.2,3.72,11.94,11.94,0,0,0-1.21,5.71,11.53,11.53,0,0,0,1.21,5.54,9.25,9.25,0,0,0,3.29,3.55,13.83,13.83,0,0,0,4.84,1.82,30.83,30.83,0,0,0,5.71.52q7.26,0,11.24-2.42a16.23,16.23,0,0,0,5.88-5.8,18.55,18.55,0,0,0,2.33-6.83,47.26,47.26,0,0,0,.43-5.54Z"/><path class="cls-1" d="M409.94,26.23V38.68h.52a28.2,28.2,0,0,1,12.11-11.33,35,35,0,0,1,15.22-3.55q9.86,0,16.17,2.68a24,24,0,0,1,9.95,7.44A28.84,28.84,0,0,1,469,45.51a72.23,72.23,0,0,1,1.47,15.14v55H445.92V65.15q0-11.07-3.46-16.52t-12.28-5.45q-10,0-14.53,6t-4.5,19.63v46.88H386.59V26.23Z"/><path class="cls-1" d="M506.11,115.65,475.5,26.23h25.77l18.86,61.06h.34l18.85-61.06h24.39l-30.27,89.43Z"/><path class="cls-1" d="M567.69,53.73q.52-8.65,4.33-14.36a29.41,29.41,0,0,1,9.69-9.17,42.22,42.22,0,0,1,13.23-4.93,75.37,75.37,0,0,1,14.79-1.47,100.66,100.66,0,0,1,13.67,1A41.9,41.9,0,0,1,636,28.48a24.9,24.9,0,0,1,9.34,7.7Q649,41.1,649,49.23V95.76a93.18,93.18,0,0,0,.69,11.59q.69,5.54,2.42,8.3H631.3a5.3,5.3,0,0,1-5.22-4.19v0a36.63,36.63,0,0,1-.61-4.41,32,32,0,0,1-13.84,8.48,55.59,55.59,0,0,1-16.26,2.42,43.94,43.94,0,0,1-11.94-1.56,27.31,27.31,0,0,1-9.69-4.84,22.54,22.54,0,0,1-6.49-8.3,28.06,28.06,0,0,1-2.33-11.93q0-7.61,2.68-12.54a22.4,22.4,0,0,1,6.92-7.87,31,31,0,0,1,9.69-4.41,103.88,103.88,0,0,1,11-2.33q5.54-.87,10.9-1.38a65.77,65.77,0,0,0,9.51-1.56,16.62,16.62,0,0,0,6.57-3,6.65,6.65,0,0,0,2.25-5.8,13,13,0,0,0-1.3-6.31,9.54,9.54,0,0,0-3.46-3.63,13.65,13.65,0,0,0-5-1.73,41.51,41.51,0,0,0-6.14-.43q-7.27,0-11.42,3.11t-4.84,10.38Zm56.74,18.16a11,11,0,0,1-3.89,2.16,39.9,39.9,0,0,1-5,1.3q-2.69.52-5.62.86t-5.88.87a44.61,44.61,0,0,0-5.45,1.38,16.17,16.17,0,0,0-4.67,2.33,11.08,11.08,0,0,0-3.2,3.72,11.94,11.94,0,0,0-1.21,5.71,11.53,11.53,0,0,0,1.21,5.54A9.25,9.25,0,0,0,594,99.31a13.83,13.83,0,0,0,4.84,1.82,30.83,30.83,0,0,0,5.71.52q7.26,0,11.24-2.42a16.23,16.23,0,0,0,5.88-5.8A18.55,18.55,0,0,0,624,86.6a47.26,47.26,0,0,0,.43-5.54Z"/><path class="cls-1" d="M683.49,93.43a14.34,14.34,0,0,0,4.24,4.67,18.18,18.18,0,0,0,6,2.68,28,28,0,0,0,7,.86,26.11,26.11,0,0,0,5.45-.61,18.51,18.51,0,0,0,5.19-1.9,11.77,11.77,0,0,0,3.89-3.46,9.09,9.09,0,0,0,1.56-5.45q0-5.53-7.35-8.3a147.17,147.17,0,0,0-20.5-5.54q-5.36-1.21-10.47-2.85a35.67,35.67,0,0,1-9.08-4.32,21,21,0,0,1-6.4-6.75,19.09,19.09,0,0,1-2.42-9.95q0-8.65,3.37-14.18a24.85,24.85,0,0,1,8.91-8.73,39,39,0,0,1,12.45-4.5,76.74,76.74,0,0,1,14.18-1.3,70.91,70.91,0,0,1,14.1,1.38,37.39,37.39,0,0,1,12.19,4.67,28,28,0,0,1,8.91,8.73,29.37,29.37,0,0,1,4.24,13.75H715.58q-.52-7.09-5.36-9.6a24.56,24.56,0,0,0-11.42-2.51,42.56,42.56,0,0,0-4.5.26,15,15,0,0,0-4.41,1.12,9.1,9.1,0,0,0-3.37,2.51,6.62,6.62,0,0,0-1.38,4.41,6.73,6.73,0,0,0,2.42,5.36,18.65,18.65,0,0,0,6.31,3.37,78.94,78.94,0,0,0,8.91,2.34q5,1,10.21,2.25a104.8,104.8,0,0,1,10.47,2.94,34.49,34.49,0,0,1,9.08,4.58,22.21,22.21,0,0,1,6.4,7.09,20.81,20.81,0,0,1,2.42,10.46q0,8.82-3.55,14.79a28.39,28.39,0,0,1-9.25,9.6,37.93,37.93,0,0,1-13.06,5.1,76.27,76.27,0,0,1-15,1.47,74.09,74.09,0,0,1-15.22-1.56,40.13,40.13,0,0,1-13.23-5.19,29.65,29.65,0,0,1-9.51-9.6q-3.72-6-4.06-15h23.35A13.44,13.44,0,0,0,683.49,93.43Z"/><path class="cls-1" d="M746.54,9A14.86,14.86,0,0,1,750,4.19a15.67,15.67,0,0,1,5.06-3.1,17.05,17.05,0,0,1,12,0,15.67,15.67,0,0,1,5.06,3.1A14.84,14.84,0,0,1,775.66,9a15.15,15.15,0,0,1,1.3,6.36,15.25,15.25,0,0,1-1.3,6.4,15.05,15.05,0,0,1-3.49,4.87,15.22,15.22,0,0,1-5.06,3.1,17.35,17.35,0,0,1-12,0,15,15,0,0,1-9.85-14.37A15.15,15.15,0,0,1,746.54,9Zm3.82,11.23a12.07,12.07,0,0,0,2.48,3.86,11.13,11.13,0,0,0,3.7,2.54,11.81,11.81,0,0,0,9.09,0,11.13,11.13,0,0,0,3.7-2.54,12.38,12.38,0,0,0,2.5-3.86,12.56,12.56,0,0,0,.93-4.87,12.42,12.42,0,0,0-.93-4.85,12.19,12.19,0,0,0-2.5-3.82A11.43,11.43,0,0,0,761.1,3.3a11.5,11.5,0,0,0-4.56.91,11.3,11.3,0,0,0-3.7,2.52,11.88,11.88,0,0,0-2.48,3.82,12.66,12.66,0,0,0-.91,4.85A12.81,12.81,0,0,0,750.36,20.28ZM761.47,6.73a9.12,9.12,0,0,1,5,1.16,4.39,4.39,0,0,1,1.75,4,5.33,5.33,0,0,1-.35,2,3.65,3.65,0,0,1-1,1.38,4.39,4.39,0,0,1-1.45.83,7.26,7.26,0,0,1-1.78.37L768.33,24h-3.59l-4.21-7.39h-2.15V24h-3.43V6.73Zm0,7.23a6.16,6.16,0,0,0,2.44-.41q.95-.41.95-2a1.74,1.74,0,0,0-.33-1.12,2.22,2.22,0,0,0-.85-.64,4.25,4.25,0,0,0-1.16-.31,9.61,9.61,0,0,0-1.22-.08h-2.89V14Z"/></g></g></svg>